<svg width="194" height="43" viewBox="0 0 194 43" fill="none" xmlns="http://www.w3.org/2000/svg">
<path d="M160.144 29.04V9.60001H166.264V29.04H160.144ZM172.584 29.04V17.68C172.584 16.6933 172.277 15.9333 171.664 15.4C171.077 14.84 170.344 14.56 169.464 14.56C168.85 14.56 168.304 14.6933 167.824 14.96C167.344 15.2 166.957 15.5467 166.664 16C166.397 16.4533 166.264 17.0133 166.264 17.68L163.904 16.64C163.904 15.0933 164.237 13.7733 164.904 12.68C165.57 11.56 166.477 10.7067 167.624 10.12C168.77 9.50668 170.064 9.20001 171.504 9.20001C172.864 9.20001 174.077 9.50668 175.144 10.12C176.237 10.7333 177.104 11.5867 177.744 12.68C178.384 13.7733 178.704 15.08 178.704 16.6V29.04H172.584ZM185.024 29.04V17.68C185.024 16.6933 184.717 15.9333 184.104 15.4C183.517 14.84 182.784 14.56 181.904 14.56C181.29 14.56 180.744 14.6933 180.264 14.96C179.784 15.2 179.397 15.5467 179.104 16C178.837 16.4533 178.704 17.0133 178.704 17.68L175.184 17.2C175.237 15.5467 175.624 14.1333 176.344 12.96C177.09 11.76 178.064 10.84 179.264 10.2C180.49 9.53335 181.864 9.20001 183.384 9.20001C184.877 9.20001 186.197 9.52001 187.344 10.16C188.517 10.7733 189.437 11.6667 190.104 12.84C190.797 13.9867 191.144 15.3733 191.144 17V29.04H185.024Z" fill="#F8BE00"/>
<path d="M150.714 29.04V0H156.834V29.04H150.714Z" fill="black"/>
<path d="M136.045 29.44C134.258 29.44 132.658 29 131.245 28.12C129.858 27.24 128.752 26.04 127.925 24.52C127.125 23 126.725 21.2667 126.725 19.32C126.725 17.3733 127.125 15.64 127.925 14.12C128.752 12.6 129.858 11.4 131.245 10.52C132.658 9.64001 134.258 9.20001 136.045 9.20001C137.352 9.20001 138.525 9.45335 139.565 9.96001C140.632 10.4667 141.498 11.1733 142.165 12.08C142.832 12.96 143.205 13.9733 143.285 15.12V23.52C143.205 24.6667 142.832 25.6933 142.165 26.6C141.525 27.48 140.672 28.1733 139.605 28.68C138.538 29.1867 137.352 29.44 136.045 29.44ZM137.285 23.92C138.592 23.92 139.645 23.4933 140.445 22.64C141.245 21.76 141.645 20.6533 141.645 19.32C141.645 18.4133 141.458 17.6133 141.085 16.92C140.738 16.2267 140.232 15.6933 139.565 15.32C138.925 14.92 138.178 14.72 137.325 14.72C136.472 14.72 135.712 14.92 135.045 15.32C134.405 15.6933 133.885 16.2267 133.485 16.92C133.112 17.6133 132.925 18.4133 132.925 19.32C132.925 20.2 133.112 20.9867 133.485 21.68C133.858 22.3733 134.378 22.92 135.045 23.32C135.712 23.72 136.458 23.92 137.285 23.92ZM141.405 29.04V23.8L142.325 19.08L141.405 14.36V9.60001H147.405V29.04H141.405Z" fill="black"/>
<path d="M116.611 29.48C114.504 29.48 112.624 29.0533 110.971 28.2C109.344 27.32 108.064 26.1067 107.131 24.56C106.198 23.0133 105.731 21.2667 105.731 19.32C105.731 17.3733 106.184 15.64 107.091 14.12C108.024 12.5733 109.278 11.36 110.851 10.48C112.424 9.6 114.198 9.16 116.171 9.16C118.091 9.16 119.784 9.57334 121.251 10.4C122.718 11.2267 123.864 12.3733 124.691 13.84C125.544 15.3067 125.971 16.9867 125.971 18.88C125.971 19.2267 125.944 19.6 125.891 20C125.864 20.3733 125.798 20.8133 125.691 21.32L108.931 21.36V17.16L123.091 17.12L120.451 18.88C120.424 17.76 120.251 16.84 119.931 16.12C119.611 15.3733 119.131 14.8133 118.491 14.44C117.878 14.04 117.118 13.84 116.211 13.84C115.251 13.84 114.411 14.0667 113.691 14.52C112.998 14.9467 112.451 15.56 112.051 16.36C111.678 17.16 111.491 18.1333 111.491 19.28C111.491 20.4267 111.691 21.4133 112.091 22.24C112.518 23.04 113.104 23.6667 113.851 24.12C114.624 24.5467 115.531 24.76 116.571 24.76C117.531 24.76 118.398 24.6 119.171 24.28C119.944 23.9333 120.624 23.4267 121.211 22.76L124.571 26.12C123.611 27.24 122.451 28.08 121.091 28.64C119.731 29.2 118.238 29.48 116.611 29.48Z" fill="#00D2AF"/>
<path d="M91.4875 29.04V9.60001H97.6075V29.04H91.4875ZM97.6075 18.36L95.0475 16.36C95.5542 14.0933 96.4075 12.3333 97.6075 11.08C98.8075 9.82668 100.474 9.20001 102.608 9.20001C103.541 9.20001 104.354 9.34668 105.048 9.64001C105.768 9.90668 106.394 10.3333 106.928 10.92L103.288 15.52C103.021 15.2267 102.688 15 102.288 14.84C101.888 14.68 101.434 14.6 100.928 14.6C99.9142 14.6 99.1009 14.92 98.4875 15.56C97.9009 16.1733 97.6075 17.1067 97.6075 18.36Z" fill="black"/>
<path d="M78.8007 29.48C76.8007 29.48 74.9873 29.04 73.3606 28.16C71.7606 27.2533 70.494 26.0267 69.5606 24.48C68.6273 22.9333 68.1606 21.2 68.1606 19.28C68.1606 17.36 68.6273 15.64 69.5606 14.12C70.494 12.6 71.7606 11.4 73.3606 10.52C74.9606 9.61334 76.774 9.16 78.8007 9.16C80.8273 9.16 82.6406 9.6 84.2406 10.48C85.8406 11.36 87.1073 12.5733 88.0406 14.12C88.974 15.64 89.4407 17.36 89.4407 19.28C89.4407 21.2 88.974 22.9333 88.0406 24.48C87.1073 26.0267 85.8406 27.2533 84.2406 28.16C82.6406 29.04 80.8273 29.48 78.8007 29.48ZM78.8007 23.92C79.6807 23.92 80.454 23.7333 81.1207 23.36C81.7873 22.96 82.294 22.4133 82.6406 21.72C83.014 21 83.2006 20.1867 83.2006 19.28C83.2006 18.3733 83.014 17.5867 82.6406 16.92C82.2673 16.2267 81.7473 15.6933 81.0807 15.32C80.4406 14.92 79.6807 14.72 78.8007 14.72C77.9473 14.72 77.1873 14.92 76.5206 15.32C75.854 15.6933 75.334 16.2267 74.9606 16.92C74.5873 17.6133 74.4007 18.4133 74.4007 19.32C74.4007 20.2 74.5873 21 74.9606 21.72C75.334 22.4133 75.854 22.96 76.5206 23.36C77.1873 23.7333 77.9473 23.92 78.8007 23.92Z" fill="black"/>
<path d="M60.0109 29.04V9.60001H66.1309V29.04H60.0109ZM63.0909 6.92001C62.1309 6.92001 61.3309 6.60001 60.6909 5.96001C60.0776 5.29334 59.7709 4.49334 59.7709 3.56001C59.7709 2.60001 60.0776 1.80001 60.6909 1.16001C61.3309 0.520012 62.1309 0.200012 63.0909 0.200012C64.0509 0.200012 64.8376 0.520012 65.4509 1.16001C66.0643 1.80001 66.3709 2.60001 66.3709 3.56001C66.3709 4.49334 66.0643 5.29334 65.4509 5.96001C64.8376 6.60001 64.0509 6.92001 63.0909 6.92001Z" fill="#0066FF"/>
<path d="M50.5672 29.48C48.5672 29.48 46.7539 29.04 45.1272 28.16C43.5005 27.28 42.2205 26.0667 41.2872 24.52C40.3539 22.9733 39.8872 21.24 39.8872 19.32C39.8872 17.3733 40.3539 15.64 41.2872 14.12C42.2472 12.5733 43.5405 11.36 45.1672 10.48C46.7939 9.6 48.6205 9.16 50.6472 9.16C52.1672 9.16 53.5539 9.42667 54.8072 9.96C56.0872 10.4667 57.2205 11.24 58.2072 12.28L54.2872 16.2C53.8339 15.6933 53.3005 15.32 52.6872 15.08C52.1005 14.84 51.4205 14.72 50.6472 14.72C49.7672 14.72 48.9805 14.92 48.2872 15.32C47.6205 15.6933 47.0872 16.2267 46.6872 16.92C46.3139 17.5867 46.1272 18.3733 46.1272 19.28C46.1272 20.1867 46.3139 20.9867 46.6872 21.68C47.0872 22.3733 47.6339 22.92 48.3272 23.32C49.0205 23.72 49.7939 23.92 50.6472 23.92C51.4472 23.92 52.1539 23.7867 52.7672 23.52C53.4072 23.2267 53.9539 22.8267 54.4072 22.32L58.2872 26.24C57.2739 27.3067 56.1272 28.12 54.8472 28.68C53.5672 29.2133 52.1405 29.48 50.5672 29.48Z" fill="black"/>
<path d="M28.4803 29.48C26.4803 29.48 24.667 29.04 23.0403 28.16C21.4403 27.2533 20.1737 26.0267 19.2403 24.48C18.307 22.9333 17.8403 21.2 17.8403 19.28C17.8403 17.36 18.307 15.64 19.2403 14.12C20.1737 12.6 21.4403 11.4 23.0403 10.52C24.6403 9.61334 26.4537 9.16 28.4803 9.16C30.507 9.16 32.3203 9.6 33.9203 10.48C35.5203 11.36 36.787 12.5733 37.7203 14.12C38.6537 15.64 39.1203 17.36 39.1203 19.28C39.1203 21.2 38.6537 22.9333 37.7203 24.48C36.787 26.0267 35.5203 27.2533 33.9203 28.16C32.3203 29.04 30.507 29.48 28.4803 29.48ZM28.4803 23.92C29.3603 23.92 30.1337 23.7333 30.8003 23.36C31.467 22.96 31.9737 22.4133 32.3203 21.72C32.6937 21 32.8803 20.1867 32.8803 19.28C32.8803 18.3733 32.6937 17.5867 32.3203 16.92C31.947 16.2267 31.427 15.6933 30.7603 15.32C30.1203 14.92 29.3603 14.72 28.4803 14.72C27.627 14.72 26.867 14.92 26.2003 15.32C25.5337 15.6933 25.0137 16.2267 24.6403 16.92C24.267 17.6133 24.0803 18.4133 24.0803 19.32C24.0803 20.2 24.267 21 24.6403 21.72C25.0137 22.4133 25.5337 22.96 26.2003 23.36C26.867 23.7333 27.627 23.92 28.4803 23.92Z" fill="black"/>
<path d="M8.88 29.52C7.73333 29.52 6.6 29.3733 5.48 29.08C4.38667 28.7867 3.36 28.3733 2.4 27.84C1.46667 27.28 0.666667 26.64 0 25.92L3.48 22.4C4.12 23.0933 4.88 23.64 5.76 24.04C6.64 24.4133 7.6 24.6 8.64 24.6C9.36 24.6 9.90667 24.4933 10.28 24.28C10.68 24.0667 10.88 23.7733 10.88 23.4C10.88 22.92 10.64 22.56 10.16 22.32C9.70667 22.0533 9.12 21.8267 8.4 21.64C7.68 21.4267 6.92 21.2 6.12 20.96C5.32 20.72 4.56 20.3867 3.84 19.96C3.12 19.5333 2.53333 18.9467 2.08 18.2C1.62667 17.4267 1.4 16.4533 1.4 15.28C1.4 14.0267 1.72 12.9467 2.36 12.04C3 11.1067 3.90667 10.3733 5.08 9.84001C6.25333 9.30667 7.62667 9.04001 9.2 9.04001C10.8533 9.04001 12.3733 9.33334 13.76 9.92001C15.1733 10.48 16.32 11.32 17.2 12.44L13.72 15.96C13.1067 15.24 12.4133 14.7333 11.64 14.44C10.8933 14.1467 10.16 14 9.44 14C8.74667 14 8.22667 14.1067 7.88 14.32C7.53333 14.5067 7.36 14.7867 7.36 15.16C7.36 15.56 7.58667 15.88 8.04 16.12C8.49333 16.36 9.08 16.5733 9.8 16.76C10.52 16.9467 11.28 17.1733 12.08 17.44C12.88 17.7067 13.64 18.0667 14.36 18.52C15.08 18.9733 15.6667 19.5867 16.12 20.36C16.5733 21.1067 16.8 22.0933 16.8 23.32C16.8 25.2133 16.08 26.72 14.64 27.84C13.2267 28.96 11.3067 29.52 8.88 29.52Z" fill="#D400BF"/>
<path d="M186.398 42.268C185.782 42.268 185.202 42.156 184.658 41.932C184.122 41.708 183.654 41.4 183.254 41.008C182.854 40.608 182.538 40.144 182.306 39.616C182.082 39.08 181.97 38.504 181.97 37.888C181.97 37.272 182.086 36.7 182.318 36.172C182.55 35.644 182.87 35.184 183.278 34.792C183.694 34.392 184.178 34.084 184.73 33.868C185.282 33.644 185.874 33.532 186.506 33.532C187.234 33.532 187.894 33.664 188.486 33.928C189.086 34.192 189.582 34.556 189.974 35.02L188.69 36.304C188.418 35.952 188.098 35.688 187.73 35.512C187.362 35.336 186.946 35.248 186.482 35.248C185.986 35.248 185.542 35.36 185.15 35.584C184.758 35.8 184.45 36.108 184.226 36.508C184.01 36.9 183.902 37.36 183.902 37.888C183.902 38.416 184.01 38.88 184.226 39.28C184.442 39.68 184.738 39.992 185.114 40.216C185.49 40.44 185.922 40.552 186.41 40.552C186.906 40.552 187.326 40.46 187.67 40.276C188.022 40.084 188.29 39.812 188.474 39.46C188.666 39.1 188.762 38.664 188.762 38.152L190.01 38.992L186.23 38.932V37.336H190.682V37.612C190.682 38.628 190.498 39.484 190.13 40.18C189.77 40.868 189.266 41.388 188.618 41.74C187.978 42.092 187.238 42.268 186.398 42.268Z" fill="black"/>
<path d="M170.293 42.136V33.664H171.613L172.177 35.356V42.136H170.293ZM176.137 42.136L171.145 35.74L171.613 33.664L176.605 40.06L176.137 42.136ZM176.137 42.136L175.633 40.444V33.664H177.517V42.136H176.137Z" fill="black"/>
<path d="M163.527 42.136V33.664H165.411V42.136H163.527Z" fill="black"/>
<path d="M154.053 38.644V37.252H155.841C156.217 37.252 156.505 37.156 156.705 36.964C156.913 36.772 157.017 36.512 157.017 36.184C157.017 35.88 156.917 35.628 156.717 35.428C156.517 35.228 156.229 35.128 155.853 35.128H154.053V33.664H156.069C156.629 33.664 157.121 33.772 157.545 33.988C157.969 34.196 158.301 34.488 158.541 34.864C158.781 35.24 158.901 35.672 158.901 36.16C158.901 36.656 158.781 37.092 158.541 37.468C158.301 37.836 157.965 38.124 157.533 38.332C157.101 38.54 156.593 38.644 156.009 38.644H154.053ZM152.613 42.136V33.664H154.497V42.136H152.613ZM157.221 42.136L154.581 38.488L156.309 38.02L159.453 42.136H157.221Z" fill="black"/>
<path d="M141.98 42.136V33.664H143.864V42.136H141.98ZM143.42 42.136V40.504H148.064V42.136H143.42ZM143.42 38.596V37.024H147.644V38.596H143.42ZM143.42 35.284V33.664H148.004V35.284H143.42Z" fill="black"/>
<path d="M131.348 42.136V33.664H133.232V42.136H131.348ZM132.788 42.136V40.504H137.432V42.136H132.788ZM132.788 38.596V37.024H137.012V38.596H132.788ZM132.788 35.284V33.664H137.372V35.284H132.788Z" fill="black"/>
<path d="M119.238 42.136V33.664H120.558L121.122 35.356V42.136H119.238ZM125.082 42.136L120.09 35.74L120.558 33.664L125.55 40.06L125.082 42.136ZM125.082 42.136L124.578 40.444V33.664H126.462V42.136H125.082Z" fill="black"/>
<path d="M112.473 42.136V33.664H114.357V42.136H112.473Z" fill="black"/>
<path d="M103.797 42.268C103.181 42.268 102.601 42.156 102.057 41.932C101.521 41.708 101.053 41.4 100.653 41.008C100.253 40.608 99.9368 40.144 99.7048 39.616C99.4808 39.08 99.3688 38.504 99.3688 37.888C99.3688 37.272 99.4848 36.7 99.7168 36.172C99.9488 35.644 100.269 35.184 100.677 34.792C101.093 34.392 101.577 34.084 102.129 33.868C102.681 33.644 103.273 33.532 103.905 33.532C104.633 33.532 105.293 33.664 105.885 33.928C106.485 34.192 106.981 34.556 107.373 35.02L106.089 36.304C105.817 35.952 105.497 35.688 105.129 35.512C104.761 35.336 104.345 35.248 103.881 35.248C103.385 35.248 102.941 35.36 102.549 35.584C102.157 35.8 101.849 36.108 101.625 36.508C101.409 36.9 101.301 37.36 101.301 37.888C101.301 38.416 101.409 38.88 101.625 39.28C101.841 39.68 102.137 39.992 102.513 40.216C102.889 40.44 103.321 40.552 103.809 40.552C104.305 40.552 104.725 40.46 105.069 40.276C105.421 40.084 105.689 39.812 105.873 39.46C106.065 39.1 106.161 38.664 106.161 38.152L107.409 38.992L103.629 38.932V37.336H108.081V37.612C108.081 38.628 107.897 39.484 107.529 40.18C107.169 40.868 106.665 41.388 106.017 41.74C105.377 42.092 104.637 42.268 103.797 42.268Z" fill="black"/>
<path d="M87.6914 42.136V33.664H89.0114L89.5754 35.356V42.136H87.6914ZM93.5354 42.136L88.5434 35.74L89.0114 33.664L94.0034 40.06L93.5354 42.136ZM93.5354 42.136L93.0314 40.444V33.664H94.9154V42.136H93.5354Z" fill="black"/>
<path d="M77.0586 42.136V33.664H78.9426V42.136H77.0586ZM78.4986 42.136V40.504H83.1426V42.136H78.4986ZM78.4986 38.596V37.024H82.7226V38.596H78.4986ZM78.4986 35.284V33.664H83.0826V35.284H78.4986Z" fill="black"/>
<path d="M65.7256 42.136L61.8376 37.864C61.5336 37.528 61.3136 37.212 61.1776 36.916C61.0416 36.612 60.9736 36.28 60.9736 35.92C60.9736 35.488 61.0816 35.092 61.2976 34.732C61.5216 34.364 61.8216 34.072 62.1976 33.856C62.5816 33.632 63.0256 33.52 63.5296 33.52C63.9216 33.52 64.2696 33.58 64.5736 33.7C64.8776 33.812 65.1416 33.96 65.3656 34.144C65.5896 34.32 65.7616 34.508 65.8816 34.708L64.6576 35.872C64.4976 35.656 64.3296 35.492 64.1536 35.38C63.9856 35.268 63.7856 35.212 63.5536 35.212C63.3136 35.212 63.1136 35.284 62.9536 35.428C62.8016 35.564 62.7256 35.736 62.7256 35.944C62.7256 36.12 62.7616 36.276 62.8336 36.412C62.9136 36.548 63.0256 36.7 63.1696 36.868L67.8736 42.136H65.7256ZM62.9416 42.268C62.3656 42.268 61.8616 42.156 61.4296 41.932C61.0056 41.7 60.6736 41.388 60.4336 40.996C60.2016 40.596 60.0856 40.152 60.0856 39.664C60.0856 39.136 60.2256 38.668 60.5056 38.26C60.7856 37.844 61.2056 37.508 61.7656 37.252L62.5456 38.44C62.3056 38.552 62.1256 38.7 62.0056 38.884C61.8856 39.068 61.8256 39.288 61.8256 39.544C61.8256 39.752 61.8696 39.936 61.9576 40.096C62.0536 40.248 62.1896 40.368 62.3656 40.456C62.5416 40.544 62.7496 40.588 62.9896 40.588C63.2616 40.588 63.4936 40.532 63.6856 40.42C63.8856 40.3 64.0536 40.136 64.1896 39.928L65.4256 41.2C65.2896 41.376 65.0936 41.548 64.8376 41.716C64.5896 41.876 64.3016 42.008 63.9736 42.112C63.6536 42.216 63.3096 42.268 62.9416 42.268Z" fill="black"/>
<path d="M42.6101 42.136L45.9701 33.664H47.6741L50.9981 42.136H49.0061L46.4621 35.104H47.1461L44.5661 42.136H42.6101ZM44.5181 40.6V39.064H49.1381V40.6H44.5181Z" fill="black"/>
<path d="M36.4805 42.136V33.664H38.3645V42.136H36.4805Z" fill="black"/>
<path d="M25.4556 42.136V40.48H27.5556C28.0676 40.48 28.5156 40.38 28.8996 40.18C29.2836 39.972 29.5796 39.672 29.7876 39.28C29.9956 38.888 30.0996 38.424 30.0996 37.888C30.0996 37.352 29.9916 36.892 29.7756 36.508C29.5676 36.124 29.2716 35.828 28.8876 35.62C28.5116 35.412 28.0676 35.308 27.5556 35.308H25.3956V33.664H27.5796C28.2196 33.664 28.8076 33.768 29.3436 33.976C29.8876 34.176 30.3596 34.468 30.7596 34.852C31.1676 35.228 31.4796 35.676 31.6956 36.196C31.9196 36.708 32.0316 37.276 32.0316 37.9C32.0316 38.516 31.9196 39.084 31.6956 39.604C31.4796 40.124 31.1716 40.572 30.7716 40.948C30.3716 41.324 29.8996 41.616 29.3556 41.824C28.8196 42.032 28.2356 42.136 27.6036 42.136H25.4556ZM24.1836 42.136V33.664H26.0676V42.136H24.1836Z" fill="black"/>
<path d="M13.5508 42.136V33.664H15.4348V42.136H13.5508ZM14.9908 42.136V40.504H19.6348V42.136H14.9908ZM14.9908 38.596V37.024H19.2148V38.596H14.9908ZM14.9908 35.284V33.664H19.5748V35.284H14.9908Z" fill="black"/>
<path d="M0 42.136V33.664H1.344L4.68 38.86H3.996L7.32 33.664H8.676V42.136H6.792V36.844L7.128 36.928L4.956 40.312H3.708L1.548 36.928L1.872 36.844V42.136H0Z" fill="black"/>
</svg>
