<svg width="1440" height="101" viewBox="0 0 1440 101" fill="none" xmlns="http://www.w3.org/2000/svg">
<path d="M1124.47 98.6362V2.36389H1171.68L1209.4 50.5001L1247.18 2.36389H1294.33V98.6362H1256.61V47.2767L1218.83 98.6362H1199.97L1162.18 47.2767V98.6362H1124.47Z" fill="black"/>
<path d="M1001.32 2.36389H1039.03V68.1213H1114.53V98.6362H1001.32V2.36389Z" fill="black"/>
<path d="M927.04 30.3716L913.725 58.8092H940.283L927.04 30.3716ZM852.692 98.7794L904.584 2.50705H949.424L1001.32 98.7794H958.853L951.223 82.3042H902.785L895.156 98.7794H852.692Z" fill="black"/>
<path d="M739.474 98.7794V2.50705H852.688V27.1482H777.188V39.4688H852.688V61.7461H777.188V74.0666H852.688V98.7794H739.474Z" fill="black"/>
<path d="M600.922 2.43528H694.128C714.064 2.22039 730.978 18.9105 730.69 38.8239C730.69 46.0587 728.747 52.6488 724.861 58.5225C721.046 64.3246 715.936 68.7658 709.602 71.7027L730.69 98.7076H690.529L672.32 75.2126H638.636V98.7076H600.922V2.43528ZM684.627 30.5863H638.636V46.9899H684.627C686.93 46.9899 688.874 46.2019 690.457 44.6261C692.113 42.9785 692.904 41.0445 692.904 38.8239C692.904 34.2395 689.234 30.5863 684.627 30.5863Z" fill="black"/>
<path d="M526.57 0C562.989 0 592.57 10.6014 592.57 46.9901V54.0099C592.714 90.3986 562.917 100.928 526.57 101C490.151 100.928 460.354 90.3986 460.498 54.0099V46.9901C460.354 10.5298 490.151 0.0716312 526.57 0ZM554.856 51.6461V49.2823C555.072 33.595 541.972 30.7298 526.57 30.5149C511.096 30.7298 497.997 33.595 498.212 49.2823V51.6461C497.997 67.405 511.096 70.2702 526.57 70.4851C541.972 70.2702 555.072 67.405 554.856 51.6461Z" fill="black"/>
<path d="M414.649 2.36389H452.363V98.6362H414.649V2.36389Z" fill="black"/>
<path d="M367.647 58.7376H406.297C403.922 91.2582 375.276 101 340.441 101C304.166 100.928 274.225 90.4702 274.369 54.0099V46.9901C274.225 10.6014 304.166 0.143262 340.441 0C375.276 0.0716312 403.922 9.81348 406.297 42.2624H367.647C364.12 32.8071 353.396 30.5865 340.441 30.5865C325.039 30.8014 311.94 33.5234 312.155 49.3539V51.7177C311.94 67.405 325.039 70.2702 340.441 70.4851C353.396 70.4851 364.192 68.1929 367.647 58.7376Z" fill="black"/>
<path d="M201.169 0C237.588 0 267.169 10.6014 267.169 46.9901V54.0099C267.313 90.3986 237.516 100.928 201.169 101C164.75 100.928 134.953 90.3986 135.097 54.0099V46.9901C134.953 10.5298 164.75 0.0716312 201.169 0ZM229.455 51.6461V49.2823C229.671 33.595 216.571 30.7298 201.169 30.5149C185.695 30.7298 172.596 33.595 172.811 49.2823V51.6461C172.596 67.405 185.695 70.2702 201.169 70.4851C216.571 70.2702 229.671 67.405 229.455 51.6461Z" fill="black"/>
<path d="M39.5136 34.0965C39.5136 38.3227 51.2453 38.8957 66.4317 39.6121C93.4218 40.973 131.352 42.8355 131.28 66.9752C131.28 94.4816 99.6116 101 65.64 101C31.7405 100.928 3.59878 96.8454 0.000102277 66.9752H39.5136C43.832 74.4248 53.8364 76.3589 65.64 76.3589C77.3717 76.3589 91.7665 74.4248 91.7665 66.9752C91.7665 62.7489 80.0348 62.1043 64.8483 61.3879C37.8582 60.0269 -0.0718713 58.1645 0.000102277 34.0965C0.000102277 6.59007 31.6685 0 65.64 0C99.5396 0.214894 127.681 4.01135 131.28 34.0965H91.7665C87.448 26.5035 77.4437 24.7128 65.64 24.7128C53.9083 24.7128 39.5136 26.4319 39.5136 34.0965Z" fill="black"/>
<path d="M1372.06 38.5089V0H1390.94L1406.03 19.2545L1421.14 0H1440V38.5089H1424.91V17.9651L1409.8 38.5089H1402.26L1387.14 17.9651V38.5089H1372.06Z" fill="black"/>
<path d="M1350.23 38.5664H1335.15V12.2635H1317.21V0.0574951H1368.17V12.2635H1350.23V38.5664Z" fill="black"/>
</svg>
