<svg width="1600" height="750" viewBox="0 0 1600 750" fill="none" xmlns="http://www.w3.org/2000/svg">
<path d="M1540 0C1573.14 2.06163e-05 1600 26.8629 1600 60V690C1600 723.137 1573.14 750 1540 750H60C26.8629 750 0 723.137 0 690V60C0 26.8629 26.8629 1.28852e-06 60 0H1540ZM86 20.127C73.4722 20.127 63.3164 30.2828 63.3164 42.8105C63.3167 55.3381 73.4724 65.4931 86 65.4932C98.5276 65.4932 108.683 55.3381 108.684 42.8105C108.684 30.2828 98.5278 20.127 86 20.127ZM170 20.127C157.472 20.127 147.316 30.2828 147.316 42.8105C147.317 55.3381 157.472 65.4931 170 65.4932C182.528 65.4932 192.683 55.3381 192.684 42.8105C192.684 30.2828 182.528 20.127 170 20.127ZM254 20.127C241.472 20.127 231.316 30.2828 231.316 42.8105C231.317 55.3381 241.472 65.4932 254 65.4932C266.528 65.4932 276.683 55.3381 276.684 42.8105C276.684 30.2828 266.528 20.127 254 20.127ZM338 20.127C325.472 20.127 315.316 30.2828 315.316 42.8105C315.317 55.3381 325.472 65.4932 338 65.4932C350.528 65.4931 360.683 55.3381 360.684 42.8105C360.684 30.2828 350.528 20.127 338 20.127ZM422 20.127C409.472 20.127 399.316 30.2828 399.316 42.8105C399.317 55.3381 409.472 65.4932 422 65.4932C434.528 65.4932 444.683 55.3381 444.684 42.8105C444.684 30.2828 434.528 20.127 422 20.127ZM506 20.127C493.472 20.127 483.316 30.2828 483.316 42.8105C483.317 55.3381 493.472 65.4932 506 65.4932C518.528 65.4932 528.683 55.3381 528.684 42.8105C528.684 30.2828 518.528 20.127 506 20.127ZM590 20.127C577.472 20.127 567.316 30.2828 567.316 42.8105C567.317 55.3381 577.472 65.4932 590 65.4932C602.528 65.4932 612.683 55.3381 612.684 42.8105C612.684 30.2828 602.528 20.127 590 20.127ZM674 20.127C661.472 20.127 651.316 30.2828 651.316 42.8105C651.317 55.3381 661.472 65.4932 674 65.4932C686.528 65.4932 696.683 55.3381 696.684 42.8105C696.684 30.2828 686.528 20.127 674 20.127ZM758 20.127C745.472 20.127 735.316 30.2828 735.316 42.8105C735.317 55.3381 745.472 65.4932 758 65.4932C770.528 65.4932 780.683 55.3381 780.684 42.8105C780.684 30.2828 770.528 20.127 758 20.127ZM842 20.127C829.472 20.127 819.316 30.2828 819.316 42.8105C819.317 55.3381 829.472 65.4932 842 65.4932C854.528 65.4932 864.683 55.3381 864.684 42.8105C864.684 30.2828 854.528 20.127 842 20.127ZM926 20.127C913.472 20.127 903.316 30.2828 903.316 42.8105C903.317 55.3381 913.472 65.4932 926 65.4932C938.528 65.4932 948.683 55.3381 948.684 42.8105C948.684 30.2828 938.528 20.127 926 20.127ZM1010 20.127C997.472 20.127 987.316 30.2828 987.316 42.8105C987.317 55.3381 997.472 65.4932 1010 65.4932C1022.53 65.4932 1032.68 55.3381 1032.68 42.8105C1032.68 30.2828 1022.53 20.127 1010 20.127ZM1094 20.127C1081.47 20.127 1071.32 30.2828 1071.32 42.8105C1071.32 55.3381 1081.47 65.4932 1094 65.4932C1106.53 65.4932 1116.68 55.3381 1116.68 42.8105C1116.68 30.2828 1106.53 20.127 1094 20.127ZM1178 20.127C1165.47 20.127 1155.32 30.2828 1155.32 42.8105C1155.32 55.3381 1165.47 65.4932 1178 65.4932C1190.53 65.4932 1200.68 55.3381 1200.68 42.8105C1200.68 30.2828 1190.53 20.127 1178 20.127ZM1262 20.127C1249.47 20.127 1239.32 30.2828 1239.32 42.8105C1239.32 55.3381 1249.47 65.4932 1262 65.4932C1274.53 65.4932 1284.68 55.3381 1284.68 42.8105C1284.68 30.2828 1274.53 20.127 1262 20.127ZM1346 20.127C1333.47 20.127 1323.32 30.2828 1323.32 42.8105C1323.32 55.3381 1333.47 65.4932 1346 65.4932C1358.53 65.4932 1368.68 55.3381 1368.68 42.8105C1368.68 30.2828 1358.53 20.127 1346 20.127ZM1430 20.127C1417.47 20.127 1407.32 30.2828 1407.32 42.8105C1407.32 55.3381 1417.47 65.4932 1430 65.4932C1442.53 65.4932 1452.68 55.3381 1452.68 42.8105C1452.68 30.2828 1442.53 20.127 1430 20.127ZM1514 20.127C1501.47 20.127 1491.32 30.2828 1491.32 42.8105C1491.32 55.3381 1501.47 65.4932 1514 65.4932C1526.53 65.4932 1536.68 55.3381 1536.68 42.8105C1536.68 30.2828 1526.53 20.127 1514 20.127Z" fill="white"/>
</svg>
